# xmcd
#
# Track frame offsets:
#	150
#	18884
#	35655
#	50783
#	68210
#	82988
#	96468
#	112759
#	129137
#	144882
#	158702
#	175041
#	191919
#	209528
#	227764
#	245147
#	259958
#	272022
#	287295
#	303380
#	320496
#	332426
#
# Disc length: 4594 seconds
#
# Revision: 1
# Processed by: cddbd v1.5.2PL0 Copyright (c) Steve Scherf et al.
# Submitted via: EasyCDDAExtractor 11.5.0.1
#
DISCID=3511f016
DTITLE=Various Artist - NCT 098
DYEAR=2007
DGENRE=Country
TTITLE0=Faith Hill - Lost
TTITLE1=Reba McEntire ft. Kelly Clarkson - Because Of You
TTITLE2=Dierks Bentley - Free And Easy (Down The Road I Go)
TTITLE3=Sugarland - Everyday America
TTITLE4=Steve Holy - Men Buy The Drinks (Girls Call The Shots)
TTITLE5=Joe Nichols - Another Side Of You
TTITLE6=Sarah Johns - The One In The Middle
TTITLE7=Gretchen Wilson - One Of The Boys
TTITLE8=Whiskey Falls - Last Train Running
TTITLE9=Mark Wills - Days Of Thunder
TTITLE10=Phil Vassar - This Is My Life
TTITLE11=Cory Morrow - I Don't Want To Get Up
TTITLE12=Travis Tritt - You Never Take Me Dancing
TTITLE13=Rodney Hayden - Down The Road
TTITLE14=LeAnn Rimes - Nothin' Better To Do
TTITLE15=Donovan Chapman - All I Need
TTITLE16=Ryan Turner - My Side Of Town
TTITLE17=Michelle Cupit - That Ole Fiddle On The Wall
TTITLE18=Jason Meadows - 18 Video Tapes
TTITLE19=Tracy Byrd - Better Places Than This
TTITLE20=Mark Chesnutt - That Good That Bad
TTITLE21=Ronnie Bear - Mobile Home
EXTD=
EXTT0=
EXTT1=
EXTT2=
EXTT3=
EXTT4=
EXTT5=
EXTT6=
EXTT7=
EXTT8=
EXTT9=
EXTT10=
EXTT11=
EXTT12=
EXTT13=
EXTT14=
EXTT15=
EXTT16=
EXTT17=
EXTT18=
EXTT19=
EXTT20=
EXTT21=
PLAYORDER=
